<?xml version="1.0" standalone="no"?>
<!DOCTYPE svg PUBLIC "-//W3C//DTD SVG 20010904//EN"
 "http://www.w3.org/TR/2001/REC-SVG-20010904/DTD/svg10.dtd">
<svg version="1.0" xmlns="http://www.w3.org/2000/svg"
 width="1920.000000pt" height="1920.000000pt" viewBox="0 0 1920.000000 1920.000000"
 preserveAspectRatio="xMidYMid meet">

<g transform="translate(0.000000,1920.000000) scale(0.100000,-0.100000)"
fill="#000000" stroke="none">
<path d="M10613 16599 c13 -233 -23 -573 -81 -775 -106 -367 -263 -570 -737
-956 -126 -103 -284 -233 -350 -289 -66 -56 -242 -192 -390 -303 -303 -227
-458 -368 -554 -503 -139 -195 -192 -347 -192 -553 -1 -176 34 -305 136 -515
95 -195 234 -399 500 -735 50 -63 115 -146 145 -185 89 -116 204 -219 300
-269 144 -74 142 -75 76 50 -32 60 -138 231 -236 379 -258 392 -327 523 -387
732 -25 89 -28 113 -28 258 0 194 16 259 105 441 126 254 275 416 850 919 249
218 552 518 661 655 281 350 403 651 402 990 0 152 -18 267 -62 410 -41 128
-140 350 -158 350 -3 0 -3 -45 0 -101z"/>
<path d="M11525 14655 c-263 -68 -502 -159 -750 -285 -556 -282 -925 -628
-1080 -1013 -105 -260 -98 -552 19 -826 54 -124 130 -246 273 -438 143 -192
183 -254 222 -345 23 -55 26 -76 25 -168 0 -89 -5 -116 -28 -180 -29 -77 -89
-194 -136 -265 -42 -63 -45 -69 -29 -60 144 86 341 239 446 346 237 243 301
459 214 718 -45 133 -83 200 -301 521 -237 350 -265 523 -130 795 175 353 678
802 1315 1171 61 35 101 64 90 64 -11 -1 -78 -16 -150 -35z"/>
<path d="M12235 11173 c-95 -8 -244 -47 -314 -81 -41 -20 -68 -38 -60 -41 7
-2 15 1 16 6 2 6 15 8 30 5 15 -3 24 -1 20 5 -4 6 48 9 141 8 128 -2 158 -5
237 -29 117 -35 209 -86 264 -144 25 -26 41 -40 36 -32 -5 9 -5 12 1 7 5 -5 9
-12 10 -15 0 -4 13 -32 27 -62 62 -131 72 -257 33 -412 -25 -99 -46 -148 -102
-235 -19 -29 -31 -53 -27 -53 4 0 0 -6 -9 -12 -9 -7 -56 -60 -106 -118 -49
-58 -124 -134 -165 -170 -42 -36 -74 -71 -71 -78 2 -7 -1 -10 -6 -7 -5 3 -49
-25 -97 -63 -101 -78 -244 -179 -288 -203 -17 -10 -29 -24 -28 -34 1 -11 -2
-14 -9 -7 -7 7 -28 0 -64 -21 -29 -17 -52 -32 -50 -34 9 -10 242 70 421 145
125 52 348 169 435 227 127 86 230 168 225 182 -2 7 2 10 9 7 16 -6 117 103
182 196 34 48 96 170 87 170 -3 0 -1 6 5 13 16 20 41 117 47 187 27 266 -193
554 -495 650 -96 31 -252 51 -335 43z"/>
<path d="M8190 11064 c-163 -21 -391 -74 -383 -87 3 -6 1 -7 -6 -3 -16 10
-152 -24 -144 -37 3 -6 1 -7 -5 -3 -25 15 -350 -99 -542 -191 -139 -66 -220
-131 -220 -174 0 -63 107 -115 330 -158 179 -36 197 -38 500 -61 481 -36 1292
-50 1795 -31 513 20 922 50 1150 86 50 8 115 17 145 20 30 3 100 18 155 32 55
14 110 27 123 29 42 8 137 47 190 78 29 17 61 36 70 41 133 77 201 120 193
123 -5 2 -114 -13 -241 -33 -127 -19 -254 -38 -283 -41 -29 -3 -117 -14 -197
-24 -238 -32 -901 -97 -1081 -105 -46 -2 -174 -10 -284 -17 -269 -17 -1120
-17 -1285 0 -69 7 -152 15 -185 18 -80 7 -242 41 -312 65 -111 38 -135 69 -99
133 11 21 40 52 64 68 53 36 192 108 210 108 7 0 10 5 6 12 -4 6 -3 8 3 5 5
-3 34 3 64 14 67 26 180 60 325 99 159 42 173 50 94 48 -36 -1 -103 -7 -150
-14z"/>
<path d="M8013 9975 c-111 -30 -281 -124 -267 -147 4 -6 3 -8 -3 -5 -14 9 -69
-51 -87 -95 -20 -47 -20 -101 -2 -137 21 -40 84 -93 136 -115 25 -10 59 -25
76 -32 35 -15 136 -44 174 -50 14 -2 63 -13 110 -24 47 -10 108 -22 135 -25
28 -3 64 -7 80 -9 71 -11 320 -37 440 -46 172 -14 915 -13 1097 1 188 14 465
52 608 84 63 14 122 26 130 26 8 1 53 10 100 20 211 49 299 73 294 80 -3 5 2
6 11 3 8 -4 29 -1 45 5 17 6 44 16 60 22 31 12 41 29 15 29 -21 0 -161 76
-205 111 -24 19 -45 29 -55 25 -10 -3 -14 -2 -9 5 10 17 -37 59 -66 59 -15 0
-132 -15 -261 -34 -129 -19 -268 -37 -309 -40 -41 -4 -131 -13 -200 -21 -488
-54 -1098 -77 -1435 -54 -110 7 -219 13 -242 14 -24 0 -43 3 -43 8 0 4 -10 7
-22 7 -35 0 -169 40 -219 66 -26 13 -49 21 -53 19 -3 -3 -4 -2 -1 2 3 4 -5 18
-19 32 -13 14 -26 36 -29 48 -7 32 11 96 36 124 59 65 59 65 -20 44z"/>
<path d="M8268 8963 c-16 -2 -28 -9 -28 -14 0 -6 -4 -7 -10 -4 -5 3 -48 -12
-95 -34 -95 -44 -213 -147 -202 -176 4 -8 2 -15 -3 -15 -13 0 -13 -71 0 -105
5 -14 14 -23 20 -20 5 3 7 0 4 -8 -7 -19 62 -77 141 -121 72 -40 209 -93 250
-98 17 -2 32 -6 35 -9 3 -4 48 -16 100 -28 430 -96 1126 -116 1570 -45 52 9
110 17 128 20 18 2 92 18 165 35 72 16 143 32 157 35 14 3 68 16 120 30 52 15
106 28 120 31 31 5 196 51 230 63 14 5 39 14 55 21 l30 11 -38 19 c-21 11 -43
17 -49 13 -7 -4 -8 -3 -4 4 4 7 2 12 -4 12 -21 0 -159 73 -308 162 -72 43 -89
50 -120 45 -41 -7 -77 -15 -77 -17 0 -1 -11 -3 -25 -5 -14 -2 -61 -11 -105
-19 -84 -17 -253 -37 -495 -58 -96 -9 -316 -13 -650 -12 -494 0 -596 6 -735
38 -167 40 -232 130 -163 229 11 15 18 26 16 26 -2 -1 -15 -4 -30 -6z"/>
<path d="M7335 8272 c-94 -8 -373 -54 -473 -78 -256 -62 -500 -157 -550 -214
-12 -13 -12 -13 -6 0 5 8 -12 -1 -36 -20 -63 -49 -71 -57 -68 -72 2 -7 -3 -12
-10 -10 -15 3 -50 -53 -58 -94 -9 -49 49 -146 78 -128 7 5 8 3 3 -6 -6 -10 -4
-12 9 -7 10 4 15 3 11 -3 -8 -13 63 -48 168 -81 96 -32 373 -94 452 -102 28
-3 115 -15 195 -26 143 -19 207 -26 345 -36 39 -2 129 -9 200 -15 455 -35 734
-44 1490 -43 594 0 851 8 1240 38 105 8 249 20 320 25 72 6 198 19 280 30 83
11 175 22 205 26 30 3 116 17 190 30 74 14 158 29 185 34 243 42 709 181 687
205 -4 4 -2 5 5 1 12 -7 63 12 75 29 4 5 8 6 8 1 0 -5 9 -1 20 9 11 10 20 15
20 11 0 -9 120 57 180 100 54 37 129 104 117 104 -5 0 -1 7 7 16 19 19 23 130
4 118 -7 -4 -8 -3 -4 4 11 18 -4 38 -15 21 -6 -10 -8 -7 -7 10 2 13 -3 26 -11
29 -9 3 -11 0 -6 -9 5 -8 0 -6 -12 4 -11 9 -27 17 -35 17 -14 0 -15 -6 -4 -47
15 -55 11 -98 -10 -131 -14 -21 -109 -96 -116 -91 -2 1 -21 -7 -43 -18 -38
-20 -124 -49 -230 -79 -185 -52 -653 -123 -1017 -155 -82 -7 -148 -16 -148
-21 0 -5 -5 -6 -10 -3 -6 4 -75 2 -153 -4 -78 -6 -194 -13 -257 -16 -63 -3
-144 -7 -180 -10 -372 -27 -906 -43 -1415 -43 -484 1 -617 6 -935 34 -102 9
-216 18 -255 20 -38 1 -70 3 -70 4 0 2 -24 6 -195 30 -177 25 -380 62 -491 90
-94 23 -234 76 -254 96 -8 9 -15 12 -15 7 -1 -19 -29 44 -30 66 0 28 40 112
50 106 10 -6 32 20 25 28 -3 4 -2 5 1 2 11 -8 104 47 97 58 -3 6 -1 7 6 3 6
-4 42 4 79 18 104 39 315 94 426 111 190 28 203 33 86 32 -58 -1 -123 -3 -145
-5z"/>
<path d="M12998 7670 c-26 -21 -45 -40 -42 -42 2 -3 -2 -5 -8 -5 -7 0 -58 -27
-113 -59 -55 -33 -138 -77 -185 -98 -47 -22 -103 -48 -125 -58 -22 -11 -60
-26 -85 -34 -25 -8 -54 -19 -65 -24 -102 -44 -667 -188 -805 -205 -67 -8 -112
-15 -190 -29 -164 -28 -548 -69 -805 -86 -627 -41 -1706 -29 -2370 25 -99 8
-189 14 -200 14 -11 -1 -99 6 -195 15 -96 9 -206 19 -245 22 l-70 5 40 -15
c92 -33 400 -104 520 -120 22 -3 116 -16 208 -31 195 -29 594 -71 812 -84 184
-11 987 -11 1185 1 260 15 862 67 1010 88 80 12 165 23 190 26 75 8 411 74
485 96 39 11 82 21 96 23 33 5 191 55 204 65 6 4 17 7 25 8 29 0 150 49 143
57 -5 4 -3 5 3 2 6 -4 49 10 95 29 232 98 443 255 518 385 47 83 41 88 -31 29z"/>
<path d="M6370 5303 c0 -766 -4 -1259 -10 -1328 -19 -192 -56 -297 -138 -384
-54 -57 -115 -88 -205 -102 -34 -6 -63 -11 -64 -13 -4 -3 84 -347 90 -353 12
-11 188 17 257 41 98 34 170 79 250 157 143 140 222 305 276 579 16 77 18 207
21 1353 l4 1267 -241 0 -240 0 0 -1217z"/>
<path d="M7970 5743 c-143 -14 -310 -57 -430 -111 -90 -40 -87 -26 -40 -212
23 -91 44 -167 46 -169 2 -2 33 10 69 27 148 73 341 108 535 99 244 -12 351
-81 380 -245 7 -37 10 -80 9 -97 l-4 -30 -215 -6 c-166 -5 -239 -11 -320 -28
-204 -43 -366 -120 -478 -226 -86 -80 -137 -155 -170 -247 -23 -66 -26 -88
-27 -218 0 -126 3 -154 23 -212 87 -251 321 -376 636 -338 215 26 410 116 549
255 37 37 58 52 61 44 3 -8 9 -52 15 -99 7 -47 14 -102 17 -123 l6 -37 181 2
182 3 3 590 c4 679 -4 847 -43 951 -47 127 -139 239 -252 307 -82 50 -225 96
-351 112 -97 13 -291 17 -382 8z m568 -1228 l2 -189 -63 -61 c-179 -170 -473
-226 -601 -114 -48 42 -71 107 -70 199 1 97 28 163 95 225 98 92 270 135 529
131 l105 -1 3 -190z"/>
<path d="M12160 5735 c-147 -20 -233 -45 -382 -112 -36 -16 -58 -32 -58 -42 0
-20 77 -321 83 -328 3 -2 22 4 44 15 59 31 201 78 278 93 42 8 134 14 230 14
190 0 271 -19 343 -81 64 -54 85 -103 90 -206 l4 -88 -170 0 c-204 0 -359 -19
-491 -62 -323 -103 -501 -282 -547 -548 -35 -205 16 -389 141 -515 127 -127
314 -176 541 -141 199 30 379 114 510 238 41 39 74 69 75 67 0 -2 8 -62 17
-134 l17 -130 183 -3 182 -2 0 697 c0 777 -1 779 -66 912 -26 53 -58 96 -113
151 -118 120 -262 182 -486 209 -116 14 -305 12 -425 -4z m630 -1220 l0 -196
-45 -44 c-113 -114 -265 -177 -425 -179 -80 0 -102 3 -137 22 -92 48 -130 130
-120 255 10 119 69 208 174 261 88 45 253 72 451 75 l102 1 0 -195z"/>
<path d="M9292 5681 c2 -5 174 -437 383 -960 l380 -951 276 0 276 0 66 158
c36 86 162 391 280 677 172 417 304 735 444 1073 4 9 -44 12 -220 12 l-225 0
-70 -177 c-39 -98 -115 -293 -170 -433 -55 -140 -139 -354 -187 -475 -47 -121
-105 -267 -127 -325 -23 -58 -44 -109 -48 -113 -7 -7 -78 179 -436 1131 l-147
392 -239 0 c-144 0 -238 -4 -236 -9z"/>
</g>
</svg>
