<?xml version="1.0" standalone="no"?>
<!DOCTYPE svg PUBLIC "-//W3C//DTD SVG 20010904//EN"
 "http://www.w3.org/TR/2001/REC-SVG-20010904/DTD/svg10.dtd">
<svg version="1.0" xmlns="http://www.w3.org/2000/svg"
 width="2800.000000pt" height="1575.000000pt" viewBox="0 0 2800.000000 1575.000000"
 preserveAspectRatio="xMidYMid meet">

<g transform="translate(0.000000,1575.000000) scale(0.100000,-0.100000)"
fill="#000000" stroke="none">
<path d="M16272 14875 c-99 -28 -175 -73 -222 -131 -82 -102 -130 -228 -130
-342 0 -99 53 -252 132 -383 31 -51 183 -258 197 -269 4 -3 39 -48 78 -100
141 -188 153 -205 163 -217 28 -34 115 -174 135 -218 12 -28 35 -95 49 -150
73 -272 249 -744 354 -953 95 -189 94 -187 104 -190 4 -2 8 -8 8 -14 0 -18
131 -208 151 -219 11 -5 37 -33 59 -60 43 -55 51 -98 26 -134 -17 -25 -54
-151 -95 -320 -18 -71 -43 -170 -56 -220 -127 -470 -102 -1083 62 -1545 22
-62 129 -284 145 -301 7 -8 31 -41 53 -74 81 -120 197 -224 293 -264 146 -61
326 -7 400 118 44 74 61 130 78 251 16 116 40 265 68 419 16 87 28 113 45 96
6 -6 68 -128 140 -272 119 -240 141 -279 179 -318 6 -8 12 -17 12 -21 0 -7
119 -149 190 -228 19 -21 94 -94 167 -162 97 -91 137 -122 150 -118 13 4 14 3
5 -4 -10 -7 -4 -16 26 -40 21 -17 43 -28 47 -24 5 4 5 2 2 -4 -3 -6 8 -21 26
-35 58 -42 149 -125 283 -256 39 -38 93 -83 122 -101 91 -56 39 -1 -63 66 -10
7 -185 200 -217 240 -9 12 -37 45 -61 75 -24 30 -61 81 -83 113 -21 32 -41 61
-44 64 -3 3 -28 39 -55 80 -59 88 -70 101 -79 92 -4 -3 -4 1 0 11 3 10 1 17
-5 17 -6 0 -11 5 -11 11 0 6 -13 29 -28 52 -29 43 -157 255 -204 337 -29 52
-75 136 -130 235 -62 114 -160 320 -215 450 -14 33 -33 78 -42 100 -40 90 -71
173 -87 232 -10 33 -24 69 -32 80 -13 17 -15 16 -38 -12 -14 -16 -37 -43 -52
-60 -47 -51 -122 -153 -122 -164 0 -6 -3 -11 -8 -11 -4 0 -12 -8 -17 -19 -6
-10 -22 -40 -36 -67 -52 -97 -91 -235 -125 -434 -4 -25 -8 -47 -9 -50 -1 -4
-9 -84 -20 -210 -3 -25 -9 -63 -14 -84 -5 -22 -8 -43 -5 -47 8 -14 -20 -111
-34 -116 -18 -7 -87 16 -109 36 -10 9 -31 26 -46 38 -50 38 -93 111 -164 273
-46 105 -108 291 -118 354 -3 17 -10 51 -15 76 -46 212 -58 599 -27 830 26
186 66 352 112 455 7 17 36 98 64 181 58 171 79 292 60 339 -7 17 -13 35 -14
40 -4 33 -33 70 -113 150 -86 87 -158 186 -235 325 -43 77 -128 276 -148 343
-7 26 -17 47 -21 47 -4 0 -8 7 -8 15 0 16 -45 168 -106 355 -73 226 -187 510
-205 510 -5 0 -9 4 -9 10 0 9 -58 110 -69 120 -12 10 -71 101 -71 108 0 4 -9
13 -20 20 -11 7 -20 17 -20 23 0 6 -17 33 -37 60 -75 97 -135 174 -157 199
-144 167 -249 384 -231 480 18 97 97 160 201 160 58 0 171 -25 232 -51 113
-50 139 -62 165 -75 16 -8 33 -14 38 -14 12 0 229 -107 294 -145 96 -55 170
-109 240 -172 38 -35 75 -63 82 -63 7 0 13 -4 13 -8 0 -19 73 -42 131 -42 33
0 90 -4 127 -10 37 -5 141 -14 232 -21 247 -17 305 -30 525 -121 153 -63 419
-199 535 -273 19 -12 85 -53 145 -90 61 -37 112 -71 115 -75 3 -3 28 -22 55
-40 28 -19 61 -44 75 -57 14 -13 30 -23 37 -23 7 0 13 -4 13 -9 0 -4 17 -20
38 -34 20 -13 55 -41 76 -61 22 -20 45 -35 52 -32 8 3 11 0 7 -10 -3 -7 -1
-14 5 -14 5 0 36 -24 68 -52 32 -29 88 -80 124 -112 160 -145 414 -417 531
-569 26 -34 59 -75 73 -91 15 -16 39 -49 54 -73 16 -25 32 -41 40 -38 7 3 10
0 7 -5 -5 -9 37 -79 95 -158 17 -23 26 -29 33 -20 5 9 6 6 3 -8 -4 -14 4 -34
24 -62 16 -23 30 -45 30 -48 0 -4 10 -21 23 -38 26 -35 117 -192 117 -201 0
-4 8 -19 19 -33 33 -48 100 -187 146 -308 25 -66 50 -129 56 -141 5 -13 13
-33 18 -45 51 -120 139 -313 221 -483 39 -82 82 -172 95 -200 60 -129 94 -204
115 -255 53 -127 195 -421 258 -533 43 -77 140 -213 172 -242 18 -17 23 -17
32 -5 8 12 9 12 4 -3 -4 -14 6 -23 47 -41 79 -35 154 -62 237 -87 41 -12 82
-25 90 -28 8 -4 49 -18 90 -31 41 -13 79 -27 85 -32 5 -4 19 -8 31 -8 12 0 24
-3 26 -8 2 -4 48 -23 103 -41 140 -47 345 -156 419 -223 11 -10 24 -18 29 -18
5 0 41 -24 81 -53 39 -29 125 -91 191 -137 66 -46 122 -87 125 -90 10 -10 111
-70 120 -70 5 0 10 -4 12 -8 2 -4 28 -23 58 -41 30 -18 62 -41 71 -50 8 -9 28
-27 45 -41 37 -32 74 -83 74 -104 0 -14 -21 -16 -168 -16 -199 0 -439 -22
-611 -56 -68 -14 -127 -27 -132 -29 -4 -3 -43 -16 -86 -29 -102 -31 -301 -100
-334 -116 -15 -7 -32 -23 -39 -36 -11 -20 -10 -30 8 -66 11 -24 37 -78 57
-121 21 -43 46 -82 57 -88 10 -5 16 -14 13 -18 -2 -5 8 -26 25 -47 74 -98 96
-123 108 -119 6 3 12 -4 12 -14 0 -17 61 -81 78 -81 4 0 23 -15 42 -33 20 -17
78 -63 130 -102 52 -38 100 -73 105 -78 15 -11 102 -68 155 -99 45 -28 231
-121 393 -197 59 -28 96 -40 110 -36 15 4 18 3 9 -3 -10 -6 18 -27 100 -72 62
-34 115 -65 118 -69 3 -4 28 -23 55 -42 28 -18 52 -36 55 -39 14 -14 131 -100
136 -100 5 0 47 -30 92 -65 7 -5 36 -33 65 -61 59 -59 107 -92 107 -75 0 6 -4
11 -10 11 -5 0 -10 8 -10 18 0 10 -4 22 -9 28 -4 5 -16 30 -26 56 -13 36 -41
70 -109 135 -50 49 -107 108 -126 133 -19 25 -37 47 -40 50 -3 3 -39 43 -80
90 -86 97 -127 138 -236 235 -137 122 -222 181 -542 371 -73 43 -143 88 -155
99 -12 11 -42 36 -67 55 -25 19 -55 46 -67 60 -34 37 -85 128 -79 139 4 5 39
15 79 21 39 7 126 28 192 47 153 45 215 56 460 88 181 23 394 71 508 114 42
16 34 43 -46 139 -39 48 -83 103 -97 122 -43 61 -124 146 -181 189 -17 13
-237 194 -304 249 -11 9 -35 27 -53 39 -18 13 -38 27 -45 33 -57 46 -76 60
-85 60 -6 0 -15 6 -19 13 -7 11 -88 70 -148 107 -13 8 -75 49 -137 91 -62 41
-126 84 -143 94 -38 24 -342 170 -375 180 -14 4 -74 31 -135 60 -60 28 -145
65 -189 81 -43 16 -89 39 -101 50 -13 12 -26 19 -29 16 -3 -3 -6 0 -6 6 0 6
-19 42 -42 79 -23 38 -59 106 -80 153 -22 47 -116 238 -209 426 -93 187 -169
343 -169 346 0 4 -17 44 -39 90 -87 185 -111 239 -111 243 0 2 -13 33 -30 68
-16 36 -30 68 -30 71 0 3 -12 31 -26 63 -44 100 -51 116 -89 218 -48 128 -146
335 -191 402 -19 28 -34 54 -34 58 0 4 -31 54 -70 111 -38 58 -70 109 -70 114
0 4 -4 10 -8 12 -5 2 -33 39 -62 83 -29 44 -81 116 -114 159 -34 43 -76 100
-95 125 -19 25 -38 48 -42 51 -4 3 -24 28 -46 57 -21 29 -77 93 -123 144 -47
51 -98 108 -115 128 -76 92 -340 338 -357 333 -5 -1 -7 2 -4 7 3 5 -16 26 -42
47 -26 20 -51 42 -57 48 -12 13 -57 50 -104 86 -18 13 -45 35 -59 47 -15 13
-31 27 -37 31 -179 132 -337 246 -349 252 -6 3 -49 30 -96 61 -47 31 -98 64
-115 73 -36 20 -52 30 -123 79 -31 20 -59 37 -64 37 -4 0 -30 15 -56 33 -79
55 -306 146 -442 178 -152 35 -300 71 -327 80 -18 6 -59 10 -90 9 -107 -2
-373 19 -395 31 -12 6 -31 20 -42 30 -11 11 -23 19 -26 19 -4 0 -33 25 -66 55
-129 121 -487 312 -734 392 -177 57 -392 78 -498 48z m-52 -45 c-8 -5 -19 -10
-25 -10 -5 0 -3 5 5 10 8 5 20 10 25 10 6 0 3 -5 -5 -10z m140 -870 c0 -5 -2
-10 -4 -10 -3 0 -8 5 -11 10 -3 6 -1 10 4 10 6 0 11 -4 11 -10z m385 -500 c3
-5 1 -10 -4 -10 -6 0 -11 5 -11 10 0 6 2 10 4 10 3 0 8 -4 11 -10z m3225 -250
c13 -8 13 -10 -2 -10 -9 0 -20 5 -23 10 -8 13 5 13 25 0z m-3283 -92 c-3 -8
-6 -5 -6 6 -1 11 2 17 5 13 3 -3 4 -12 1 -19z m3073 -50 c0 -5 -7 -3 -15 6 -8
8 -15 18 -15 22 0 3 7 1 15 -6 8 -7 15 -17 15 -22z m421 -15 c13 -16 12 -17
-3 -4 -17 13 -22 21 -14 21 2 0 10 -8 17 -17z m-3091 -993 c0 -5 -2 -10 -4
-10 -3 0 -8 5 -11 10 -3 6 -1 10 4 10 6 0 11 -4 11 -10z m17 -42 c-3 -8 -6 -5
-6 6 -1 11 2 17 5 13 3 -3 4 -12 1 -19z m3970 -120 c-3 -8 -6 -5 -6 6 -1 11 2
17 5 13 3 -3 4 -12 1 -19z m-3887 -14 c0 -8 -4 -12 -10 -9 -5 3 -10 10 -10 16
0 5 5 9 10 9 6 0 10 -7 10 -16z m87 -86 c-3 -8 -6 -5 -6 6 -1 11 2 17 5 13 3
-3 4 -12 1 -19z m-29 -13 c-3 -3 -9 2 -12 12 -6 14 -5 15 5 6 7 -7 10 -15 7
-18z m369 -292 c-3 -10 -5 -4 -5 12 0 17 2 24 5 18 2 -7 2 -21 0 -30z m-357
-1747 c0 -3 -4 -8 -10 -11 -5 -3 -10 -1 -10 4 0 6 5 11 10 11 6 0 10 -2 10 -4z
m70 -376 c0 -13 -1 -13 -10 0 -5 8 -10 22 -10 30 0 13 1 13 10 0 5 -8 10 -22
10 -30z m1435 10 c3 -5 1 -10 -4 -10 -6 0 -11 5 -11 10 0 6 2 10 4 10 3 0 8
-4 11 -10z m3 -386 c-4 -3 -12 5 -18 18 -12 22 -12 22 6 6 10 -10 15 -20 12
-24z m4647 -244 c3 -6 -1 -7 -9 -4 -18 7 -21 14 -7 14 6 0 13 -4 16 -10z
m-4245 -160 c0 -5 -2 -10 -4 -10 -3 0 -8 5 -11 10 -3 6 -1 10 4 10 6 0 11 -4
11 -10z m4735 -208 c-3 -3 -11 0 -18 7 -9 10 -8 11 6 5 10 -3 15 -9 12 -12z
m295 -112 c0 -5 -2 -10 -4 -10 -3 0 -8 5 -11 10 -3 6 -1 10 4 10 6 0 11 -4 11
-10z m-1072 -585 c-3 -3 -9 2 -12 12 -6 14 -5 15 5 6 7 -7 10 -15 7 -18z
m-263 -136 c11 -17 -1 -21 -15 -4 -8 9 -8 15 -2 15 6 0 14 -5 17 -11z m1345
-713 c0 -3 -4 -8 -10 -11 -5 -3 -10 -1 -10 4 0 6 5 11 10 11 6 0 10 -2 10 -4z
m48 -61 c-3 -3 -9 2 -12 12 -6 14 -5 15 5 6 7 -7 10 -15 7 -18z m-118 -5 c0
-5 -2 -10 -4 -10 -3 0 -8 5 -11 10 -3 6 -1 10 4 10 6 0 11 -4 11 -10z m345
-260 c3 -5 1 -10 -4 -10 -6 0 -11 5 -11 10 0 6 2 10 4 10 3 0 8 -4 11 -10z"/>
<path d="M17856 13433 c-4 -4 -25 -6 -46 -4 -22 1 -65 -3 -95 -9 l-56 -12 22
-34 c24 -39 45 -65 107 -132 27 -30 69 -100 115 -194 40 -81 75 -147 79 -148
3 0 19 11 35 24 43 36 72 103 79 182 6 67 5 74 -27 134 -38 72 -53 88 -130
146 -67 51 -75 55 -83 47z m89 -81 c-3 -3 -11 0 -18 7 -9 10 -8 11 6 5 10 -3
15 -9 12 -12z m102 -364 c-3 -8 -6 -5 -6 6 -1 11 2 17 5 13 3 -3 4 -12 1 -19z"/>
<path d="M3795 6671 c-3 -6 -12 -63 -20 -128 -8 -65 -19 -161 -25 -213 -24
-191 -29 -239 -40 -356 -6 -65 -13 -132 -15 -149 -2 -16 -13 -124 -25 -240
-11 -115 -23 -223 -25 -240 -3 -16 -14 -138 -25 -270 -11 -132 -22 -260 -25
-285 -5 -48 -36 -457 -60 -790 -8 -113 -20 -295 -25 -405 -6 -110 -12 -238
-15 -285 -19 -332 -25 -445 -30 -595 -3 -93 -10 -269 -16 -390 -5 -121 -11
-284 -13 -362 l-3 -143 364 0 363 0 2 123 c1 67 3 183 4 257 1 190 15 755 20
815 2 28 9 201 15 385 5 184 12 369 14 410 3 41 7 127 9 190 3 63 8 151 11
195 3 44 7 127 10 185 7 162 17 351 20 390 16 193 17 260 4 260 -11 0 -11 2 1
10 12 7 18 48 27 182 16 240 33 441 38 446 14 14 34 -14 50 -69 11 -35 24 -67
29 -71 6 -4 8 -10 4 -13 -3 -3 12 -56 33 -118 22 -62 41 -121 43 -132 2 -11
15 -58 31 -105 15 -47 51 -159 81 -250 86 -266 174 -543 235 -740 23 -74 63
-200 89 -280 26 -80 61 -192 79 -250 39 -124 153 -485 186 -585 13 -38 35
-110 50 -160 14 -49 32 -106 40 -125 8 -19 32 -96 55 -170 23 -74 45 -144 50
-155 4 -11 15 -47 24 -80 9 -33 51 -168 94 -300 l78 -240 310 0 c301 0 309 1
312 20 2 11 10 34 17 50 7 17 18 50 24 75 17 61 130 420 141 445 5 11 12 31
15 45 4 14 42 135 85 270 43 135 106 333 140 440 34 107 73 229 86 270 13 41
51 160 85 263 33 103 62 193 63 200 2 7 6 19 9 27 6 16 122 382 139 440 6 19
14 44 19 55 4 11 22 67 39 125 17 58 38 119 46 137 8 17 14 35 14 40 0 11 41
144 105 338 54 163 85 262 90 280 1 6 7 23 13 38 7 15 14 40 18 55 3 15 9 36
14 47 4 11 18 54 31 95 13 41 29 84 36 94 12 19 13 18 21 -5 13 -33 18 -73 42
-354 11 -132 24 -269 30 -305 5 -36 14 -139 20 -230 6 -91 15 -203 21 -250 10
-80 34 -408 43 -585 5 -95 16 -276 21 -360 8 -125 27 -563 46 -1055 6 -157 12
-312 14 -345 2 -33 4 -129 4 -212 l1 -153 398 0 398 0 -3 107 c-2 60 -8 232
-15 383 -6 151 -11 289 -11 305 -1 61 -43 831 -63 1125 -10 149 -11 171 -27
375 -33 419 -57 705 -72 840 -8 77 -19 194 -25 260 -17 186 -59 596 -75 740
-13 113 -56 502 -74 665 l-6 55 -473 3 -473 2 -15 -35 c-17 -41 -111 -314
-126 -365 -5 -19 -39 -123 -74 -230 -36 -107 -66 -204 -67 -215 -1 -11 -7 -26
-14 -33 -7 -7 -13 -22 -13 -32 0 -11 -5 -32 -11 -47 -6 -15 -15 -37 -19 -48
-7 -18 -100 -305 -106 -330 -2 -5 -25 -75 -52 -155 -177 -520 -292 -883 -287
-908 4 -20 3 -22 -3 -8 -6 14 -24 -29 -71 -175 -35 -107 -74 -225 -87 -264
-14 -38 -42 -124 -64 -190 -21 -66 -64 -194 -95 -285 -31 -91 -64 -189 -72
-218 -9 -29 -21 -51 -27 -49 -6 2 -21 35 -33 73 -13 38 -27 78 -31 89 -5 11
-22 61 -37 110 -16 50 -33 101 -38 115 -6 14 -11 30 -12 35 -8 33 -67 223 -74
235 -4 8 -22 62 -40 120 -18 58 -39 119 -46 135 -7 17 -22 59 -33 95 -11 36
-110 340 -220 675 -110 336 -208 636 -218 668 -10 31 -22 57 -26 57 -5 0 -7 4
-4 8 4 7 -97 333 -123 397 -14 33 -229 697 -237 730 -4 17 -12 33 -18 37 -17
12 -984 10 -991 -1z m1038 -211 c-3 -12 -8 -19 -11 -16 -5 6 5 36 12 36 2 0 2
-9 -1 -20z m2274 -82 c-3 -8 -6 -5 -6 6 -1 11 2 17 5 13 3 -3 4 -12 1 -19z
m-20 -40 c-3 -8 -6 -5 -6 6 -1 11 2 17 5 13 3 -3 4 -12 1 -19z m-2157 -143 c0
-8 -2 -15 -4 -15 -2 0 -6 7 -10 15 -3 8 -1 15 4 15 6 0 10 -7 10 -15z m-1173
-17 c-3 -8 -6 -5 -6 6 -1 11 2 17 5 13 3 -3 4 -12 1 -19z m1250 -260 c-3 -8
-6 -5 -6 6 -1 11 2 17 5 13 3 -3 4 -12 1 -19z m1914 -75 c-12 -20 -14 -14 -5
12 4 9 9 14 11 11 3 -2 0 -13 -6 -23z m456 -275 c-3 -8 -6 -5 -6 6 -1 11 2 17
5 13 3 -3 4 -12 1 -19z m-3120 -385 c-3 -10 -5 -2 -5 17 0 19 2 27 5 18 2 -10
2 -26 0 -35z m-1 -291 c-11 -10 -14 3 -8 33 l7 30 3 -28 c2 -16 1 -31 -2 -35z
m2889 -61 c3 -5 1 -12 -5 -16 -5 -3 -10 1 -10 9 0 18 6 21 15 7z m-702 -446
c-3 -9 -8 -14 -10 -11 -3 3 -2 9 2 15 9 16 15 13 8 -4z m-1583 -159 c0 -3 -4
-8 -10 -11 -5 -3 -10 -1 -10 4 0 6 5 11 10 11 6 0 10 -2 10 -4z m1527 -88 c-3
-8 -6 -5 -6 6 -1 11 2 17 5 13 3 -3 4 -12 1 -19z m-757 -108 c0 -5 -2 -10 -4
-10 -3 0 -8 5 -11 10 -3 6 -1 10 4 10 6 0 11 -4 11 -10z m1220 -124 c0 -3 -4
-8 -10 -11 -5 -3 -10 -1 -10 4 0 6 5 11 10 11 6 0 10 -2 10 -4z m-647 -241
c-3 -9 -8 -14 -10 -11 -3 3 -2 9 2 15 9 16 15 13 8 -4z m-396 -147 c-3 -8 -6
-5 -6 6 -1 11 2 17 5 13 3 -3 4 -12 1 -19z m333 -72 c0 -3 -4 -8 -10 -11 -5
-3 -10 -1 -10 4 0 6 5 11 10 11 6 0 10 -2 10 -4z m-190 -396 c0 -5 -5 -10 -11
-10 -5 0 -7 5 -4 10 3 6 8 10 11 10 2 0 4 -4 4 -10z m-600 -361 c0 -6 -4 -7
-10 -4 -5 3 -10 11 -10 16 0 6 5 7 10 4 6 -3 10 -11 10 -16z m157 -431 c-3 -8
-6 -5 -6 6 -1 11 2 17 5 13 3 -3 4 -12 1 -19z m-19 -43 c-3 -3 -9 2 -12 12 -6
14 -5 15 5 6 7 -7 10 -15 7 -18z m2229 -327 c-3 -8 -6 -5 -6 6 -1 11 2 17 5
13 3 -3 4 -12 1 -19z"/>
<path d="M8950 5389 c0 -5 -4 -7 -10 -4 -16 10 -12 -6 29 -126 21 -63 64 -195
95 -294 31 -99 61 -188 66 -197 6 -10 10 -23 10 -30 0 -6 31 -106 69 -222 38
-116 96 -299 131 -406 34 -107 82 -258 107 -335 24 -77 52 -162 60 -190 9 -27
18 -54 22 -60 3 -5 6 -15 7 -20 2 -13 103 -328 185 -579 33 -99 59 -184 59
-190 0 -6 11 -40 24 -76 13 -36 32 -93 42 -127 10 -34 23 -59 28 -56 5 4 6 1
2 -5 -4 -7 13 -83 38 -169 94 -331 125 -530 96 -628 -29 -98 -63 -191 -75
-205 -7 -8 -20 -28 -28 -45 -9 -16 -30 -46 -48 -65 -17 -19 -39 -46 -48 -59
-24 -38 -168 -140 -246 -176 -125 -57 -205 -70 -430 -70 -110 0 -219 4 -243 8
l-42 7 0 -210 c1 -175 4 -210 16 -210 8 0 14 -4 14 -8 0 -5 24 -14 53 -22 28
-7 66 -19 82 -26 83 -35 180 -49 345 -49 171 0 214 7 369 57 141 46 356 172
496 292 127 108 352 357 340 376 -3 5 0 8 7 5 20 -7 160 202 153 229 -5 17 -4
18 5 6 8 -11 13 -12 16 -3 3 6 18 30 35 52 16 23 29 43 29 46 0 3 16 31 35 61
19 30 35 56 35 58 0 2 20 39 44 82 51 94 155 298 186 369 31 70 69 155 86 190
25 54 75 178 111 275 19 52 45 122 58 155 35 92 160 467 196 590 17 61 34 114
37 120 4 5 7 16 8 25 0 8 9 41 18 72 10 32 14 63 10 70 -4 7 -3 10 1 5 10 -8
37 62 29 75 -3 5 -1 14 4 21 9 11 59 183 69 237 2 14 11 44 19 68 7 23 14 50
14 58 0 9 16 82 36 162 70 292 107 454 138 617 9 44 18 94 22 110 3 17 17 87
30 158 13 70 28 144 33 164 6 20 8 40 5 44 -2 4 -173 8 -379 9 -303 0 -375 -2
-375 -13 0 -22 -29 -247 -45 -342 -8 -49 -16 -103 -19 -120 -95 -630 -269
-1383 -452 -1956 -13 -42 -24 -84 -24 -93 0 -9 -5 -24 -10 -34 -6 -9 -32 -82
-59 -162 -77 -229 -93 -273 -112 -303 l-17 -29 -7 31 c-3 17 -4 34 -2 38 4 7
-4 106 -18 223 -12 99 -65 334 -104 465 -12 39 -24 81 -27 95 -6 30 -31 110
-89 290 -23 74 -46 150 -50 167 -3 18 -11 35 -16 38 -5 4 -9 15 -9 25 0 19
-20 88 -85 290 -19 58 -39 126 -46 153 -6 26 -15 50 -20 53 -5 3 -9 15 -9 27
0 18 -2 19 -11 7 -8 -12 -9 -11 -4 6 3 12 -6 60 -19 107 -37 126 -106 349
-116 372 -5 11 -14 40 -21 65 -6 25 -17 63 -24 85 -7 22 -31 101 -54 175 -23
74 -48 153 -56 175 -7 22 -17 56 -20 75 -4 19 -14 47 -21 63 l-15 27 -374 0
c-257 0 -375 -3 -375 -11z m508 -6 c-93 -2 -243 -2 -335 0 -93 1 -17 3 167 3
184 0 260 -2 168 -3z m2390 0 c-86 -2 -230 -2 -320 0 -90 1 -19 3 157 3 176 0
249 -2 163 -3z m-2735 -468 c-3 -9 -8 -14 -10 -11 -3 3 -2 9 2 15 9 16 15 13
8 -4z m2754 -277 c-3 -8 -6 -5 -6 6 -1 11 2 17 5 13 3 -3 4 -12 1 -19z m-90
-310 c-3 -8 -6 -5 -6 6 -1 11 2 17 5 13 3 -3 4 -12 1 -19z m-80 -410 c-3 -7
-5 -2 -5 12 0 14 2 19 5 13 2 -7 2 -19 0 -25z m-700 -240 c-3 -8 -6 -5 -6 6
-1 11 2 17 5 13 3 -3 4 -12 1 -19z m30 0 c-3 -8 -6 -5 -6 6 -1 11 2 17 5 13 3
-3 4 -12 1 -19z m-1457 -178 c0 -5 -2 -10 -4 -10 -3 0 -8 5 -11 10 -3 6 -1 10
4 10 6 0 11 -4 11 -10z m720 -25 c0 -8 -2 -15 -4 -15 -2 0 -6 7 -10 15 -3 8
-1 15 4 15 6 0 10 -7 10 -15z m-393 -1027 c-3 -8 -6 -5 -6 6 -1 11 2 17 5 13
3 -3 4 -12 1 -19z m620 -30 c-3 -8 -6 -5 -6 6 -1 11 2 17 5 13 3 -3 4 -12 1
-19z m-717 -1762 c0 -3 -4 -8 -10 -11 -5 -3 -10 -1 -10 4 0 6 5 11 10 11 6 0
10 -2 10 -4z"/>
</g>
</svg>
