<?xml version="1.0" encoding="UTF-8"?>
<!DOCTYPE svg PUBLIC "-//W3C//DTD SVG 1.1//EN" "http://www.w3.org/Graphics/SVG/1.1/DTD/svg11.dtd">
<svg xmlns="http://www.w3.org/2000/svg" version="1.1" width="1200px" height="630px" style="shape-rendering:geometricPrecision; text-rendering:geometricPrecision; image-rendering:optimizeQuality; fill-rule:evenodd; clip-rule:evenodd" xmlns:xlink="http://www.w3.org/1999/xlink">
<g><path style="opacity:1" fill="#232f3e" d="M -0.5,-0.5 C 399.5,-0.5 799.5,-0.5 1199.5,-0.5C 1199.5,209.5 1199.5,419.5 1199.5,629.5C 799.5,629.5 399.5,629.5 -0.5,629.5C -0.5,419.5 -0.5,209.5 -0.5,-0.5 Z"/></g>
<g><path style="opacity:1" fill="#fbfbfb" d="M 487.5,249.5 C 488.568,250.434 489.901,250.768 491.5,250.5C 491.822,244.642 491.489,238.975 490.5,233.5C 489.641,223.474 484.308,217.307 474.5,215C 459.361,212.611 445.028,214.944 431.5,222C 429.299,222.825 427.466,222.325 426,220.5C 425.333,216.167 425.333,211.833 426,207.5C 437.942,199.077 451.276,195.077 466,195.5C 481.877,194.011 495.21,199.011 506,210.5C 508.539,214.914 510.539,219.581 512,224.5C 513.244,247.138 513.911,269.804 514,292.5C 515.979,296.955 517.812,301.455 519.5,306C 519.357,308.151 518.357,309.818 516.5,311C 513.148,313.533 509.481,315.366 505.5,316.5C 502.378,315.897 499.878,314.23 498,311.5C 496.365,308.368 494.532,305.368 492.5,302.5C 474.206,320.528 453.539,324.028 430.5,313C 419.144,302.083 415.311,288.917 419,273.5C 423.803,259.834 433.303,251.334 447.5,248C 452.794,247.095 458.128,246.595 463.5,246.5C 471.539,247.176 479.539,248.176 487.5,249.5 Z"/></g>
<g><path style="opacity:1" fill="#fbfcfc" d="M 729.5,195.5 C 744.201,194.337 758.201,196.837 771.5,203C 772.333,203.833 773.167,204.667 774,205.5C 774.802,210.419 774.635,215.252 773.5,220C 772.167,220.667 770.833,220.667 769.5,220C 754.501,212.854 739.168,211.854 723.5,217C 715.5,224.667 715.5,232.333 723.5,240C 737.344,245.726 751.344,251.059 765.5,256C 777.763,263.362 782.93,274.195 781,288.5C 776.445,306.382 764.945,316.548 746.5,319C 731.079,320.832 716.079,319.166 701.5,314C 698.789,312.739 696.622,310.906 695,308.5C 694.198,303.581 694.365,298.748 695.5,294C 696.833,293.333 698.167,293.333 699.5,294C 712.768,300.515 726.768,302.849 741.5,301C 753.812,300.033 759.645,293.533 759,281.5C 757.939,278.438 756.106,275.938 753.5,274C 739.386,268.971 725.386,263.638 711.5,258C 695.623,246.281 691.789,231.447 700,213.5C 707.471,203.51 717.304,197.51 729.5,195.5 Z"/></g>
<g><path style="opacity:1" fill="#fbfbfb" d="M 526.5,198.5 C 532.842,198.334 539.175,198.5 545.5,199C 547.049,200.214 548.215,201.714 549,203.5C 556.5,232.167 564,260.833 571.5,289.5C 578.975,261.317 585.808,232.984 592,204.5C 592.685,201.943 594.185,200.109 596.5,199C 602.5,198.333 608.5,198.333 614.5,199C 615.667,200.167 616.833,201.333 618,202.5C 625,232.5 632,262.5 639,292.5C 646.669,263.155 654.336,233.822 662,204.5C 662.685,201.943 664.185,200.109 666.5,199C 672.167,198.333 677.833,198.333 683.5,199C 685.396,200.808 685.896,202.975 685,205.5C 673.661,241.516 662.328,277.516 651,313.5C 650.167,314.333 649.333,315.167 648.5,316C 641.833,316.667 635.167,316.667 628.5,316C 628,315.5 627.5,315 627,314.5C 619.518,284.904 612.184,255.237 605,225.5C 597.561,255.124 590.228,284.791 583,314.5C 582.25,315.126 581.416,315.626 580.5,316C 573.782,316.795 567.116,316.628 560.5,315.5C 559.081,313.664 557.914,311.664 557,309.5C 546.398,273.862 535.898,238.195 525.5,202.5C 525.623,201.075 525.957,199.742 526.5,198.5 Z"/></g>
<g><path style="opacity:1" fill="#69717b" d="M 490.5,233.5 C 491.489,238.975 491.822,244.642 491.5,250.5C 489.901,250.768 488.568,250.434 487.5,249.5C 488.5,249.5 489.5,249.5 490.5,249.5C 490.5,244.167 490.5,238.833 490.5,233.5 Z"/></g>
<g><path style="opacity:1" fill="#253140" d="M 459.5,262.5 C 470.274,262.456 480.941,263.456 491.5,265.5C 491.922,292.57 478.588,304.403 451.5,301C 447.74,299.539 444.907,297.039 443,293.5C 437.551,277.054 443.051,266.72 459.5,262.5 Z"/></g>
<g><path style="opacity:1" fill="#f9f9fa" d="M 758.5,343.5 C 769.27,343.072 779.937,343.905 790.5,346C 792.746,347.039 794.913,348.206 797,349.5C 798.545,376.22 789.711,398.72 770.5,417C 767.763,418.08 766.096,417.246 765.5,414.5C 769.827,404.018 773.661,393.351 777,382.5C 778.471,376.569 778.804,370.569 778,364.5C 775.134,361.652 771.634,360.152 767.5,360C 752.789,359.444 738.122,359.944 723.5,361.5C 723.343,360.127 723.51,358.793 724,357.5C 734.256,349.617 745.756,344.951 758.5,343.5 Z"/></g>
<g><path style="opacity:1" fill="#fcfcfc" d="M 402.5,351.5 C 403.873,351.343 405.207,351.51 406.5,352C 507.959,408.349 614.126,419.182 725,384.5C 734.323,381.393 743.49,377.893 752.5,374C 761.99,372.145 764.656,375.478 760.5,384C 720.948,410.854 677.282,426.854 629.5,432C 542.525,440.153 466.691,415.32 402,357.5C 401.322,355.402 401.489,353.402 402.5,351.5 Z"/></g>
</svg>
