<?xml version="1.0" standalone="no"?>
<!DOCTYPE svg PUBLIC "-//W3C//DTD SVG 20010904//EN"
 "http://www.w3.org/TR/2001/REC-SVG-20010904/DTD/svg10.dtd">
<svg version="1.0" xmlns="http://www.w3.org/2000/svg"
 width="457.000000pt" height="280.000000pt" viewBox="0 0 457.000000 280.000000"
 preserveAspectRatio="xMidYMid meet">

<g transform="translate(0.000000,280.000000) scale(0.100000,-0.100000)"
fill="#000000" stroke="none">
<path d="M2937 2686 c-3 -8 -6 -155 -7 -327 0 -171 -3 -315 -6 -320 -2 -5 -33
7 -68 26 -34 19 -69 35 -77 35 -8 -1 -111 -56 -229 -124 l-215 -124 -3 -266
-2 -266 40 -25 c22 -14 41 -25 43 -25 2 0 82 -45 176 -100 95 -55 181 -100
192 -100 11 0 98 44 192 99 247 142 247 142 257 161 13 25 13 1185 0 1210 -9
17 -257 160 -278 160 -5 0 -12 -6 -15 -14z m-82 -968 l75 -43 0 -92 0 -92 -75
-41 -75 -41 -75 42 -75 43 0 90 0 91 73 42 c39 23 73 42 75 42 1 1 36 -18 77
-41z"/>
<path d="M325 1988 c-116 -66 -213 -126 -217 -132 -5 -6 -7 -159 -5 -341 2
-284 4 -330 17 -332 8 -2 73 30 145 71 l130 74 6 178 c3 99 6 180 7 181 15 16
135 73 153 72 13 0 51 -17 84 -37 l60 -37 5 -177 c3 -97 7 -178 10 -181 30
-26 264 -148 275 -143 13 5 15 51 13 342 l-3 336 -95 56 c-239 139 -336 192
-355 192 -11 0 -114 -55 -230 -122z"/>
<path d="M3730 2019 c-85 -50 -176 -102 -202 -116 -94 -51 -88 -31 -88 -311 0
-136 4 -252 8 -259 6 -10 125 -81 297 -178 22 -13 60 -35 85 -49 25 -14 54
-26 64 -26 34 0 276 140 276 160 0 12 -64 53 -215 140 l-215 122 0 88 0 88 71
41 c39 23 75 41 81 41 13 0 117 -58 141 -78 13 -12 17 -31 17 -84 0 -58 2 -68
18 -68 18 0 233 120 265 148 13 12 17 31 17 87 0 42 -5 78 -12 87 -15 18 -427
258 -443 258 -5 0 -80 -41 -165 -91z"/>
<path d="M1238 1835 c5 -11 12 -27 15 -35 5 -13 6 -13 6 1 1 8 -6 24 -15 35
-15 19 -15 19 -6 -1z"/>
<path d="M2089 1817 c-7 -17 -27 -54 -44 -82 -17 -27 -36 -61 -43 -75 -20 -38
-35 -56 -55 -63 -14 -5 -16 -11 -7 -27 7 -13 8 -48 2 -105 -4 -47 -5 -111 -1
-143 3 -31 2 -65 -3 -74 -10 -21 4 -24 24 -5 7 6 35 23 62 37 27 13 59 33 72
43 l24 18 0 249 c0 137 -4 251 -9 254 -5 3 -15 -9 -22 -27z m21 -383 c0 -12
-7 -24 -15 -28 -8 -3 -15 -2 -15 3 0 5 -3 23 -6 41 -7 31 -6 31 15 19 11 -8
21 -23 21 -35z"/>
<path d="M1365 1571 c-8 -26 -103 -191 -121 -212 -19 -21 -18 -37 5 -44 10 -3
47 -24 80 -45 34 -22 64 -40 67 -40 2 0 22 -11 43 -24 47 -30 219 -126 226
-126 2 0 -8 21 -23 48 -15 26 -39 70 -52 97 -14 28 -28 52 -31 55 -3 3 -31 55
-63 115 -32 61 -64 117 -70 125 -7 8 -17 27 -24 43 -14 32 -28 35 -37 8z"/>
</g>
</svg>
